<?xml version="1.0" encoding="UTF-8" standalone="no"?>
<!-- Created with Inkscape (http://www.inkscape.org/) -->

<svg
   width="50"
   height="50"
   viewBox="0 0 13.229166 13.229167"
   version="1.1"
   id="svg827"
   inkscape:version="1.1 (c68e22c387, 2021-05-23)"
   sodipodi:docname="battlefy.svg"
   xmlns:inkscape="http://www.inkscape.org/namespaces/inkscape"
   xmlns:sodipodi="http://sodipodi.sourceforge.net/DTD/sodipodi-0.dtd"
   xmlns="http://www.w3.org/2000/svg"
   xmlns:svg="http://www.w3.org/2000/svg">
  <sodipodi:namedview
     id="namedview829"
     pagecolor="#ffffff"
     bordercolor="#cccccc"
     borderopacity="1"
     inkscape:pageshadow="0"
     inkscape:pageopacity="0"
     inkscape:pagecheckerboard="true"
     inkscape:document-units="mm"
     showgrid="false"
     units="px"
     inkscape:zoom="10.832772"
     inkscape:cx="13.062215"
     inkscape:cy="24.693587"
     inkscape:window-width="1920"
     inkscape:window-height="1111"
     inkscape:window-x="-9"
     inkscape:window-y="-9"
     inkscape:window-maximized="1"
     inkscape:current-layer="layer1" />
  <defs
     id="defs824" />
  <g
     inkscape:label="Layer 1"
     inkscape:groupmode="layer"
     id="layer1">
    <path
       id="path1474"
       style="fill:#ffffff;fill-rule:evenodd;stroke-width:8.07092;stroke-linecap:round;stroke-linejoin:round"
       d="M 24.511719,0.00390625 A 25.000001,25.000001 0 0 0 0.00195313,25.324219 25.000001,25.000001 0 0 0 25.162109,50 25.000001,25.000001 0 0 0 50,25 l -0.0078,-0.650391 A 25.000001,25.000001 0 0 0 24.511719,0.00390625 Z m -3.09375,8.99999995 c 0.199611,3.675e-4 -0.02675,0.2866615 -0.941407,1.2187498 -3.769741,3.841613 -6.337901,8.310225 -7.423828,12.910156 -0.854666,3.620315 -1.228686,9.24907 -0.878906,13.236329 0.08386,0.955884 0.124686,1.763978 0.0918,1.796875 -0.03288,0.03288 -0.131091,-0.288047 -0.21875,-0.712891 -0.08766,-0.424864 -0.463094,-2.155892 -0.833984,-3.847656 -0.370888,-1.691763 -0.80267,-3.66949 -0.960938,-4.394531 C 9.4914279,25.726854 8.2199493,19.137994 8.1308594,18.216797 L 8.03125,17.185547 8.9707031,15.361328 c 0.8068815,-1.567299 2.4246849,-4.189062 3.0878909,-5.003906 0.112158,-0.137812 0.388132,-0.320649 0.613281,-0.4062501 0.560558,-0.2131302 3.192777,-0.5329688 6.009766,-0.7304688 1.288962,-0.090377 2.501082,-0.1859029 2.691406,-0.2128906 0.01701,-0.00241 0.03161,-0.00393 0.04492,-0.00391 z m 20.53125,0.080078 c 0.0088,6.689e-4 0.01383,0.00211 0.01758,0.00586 0.03326,0.033411 -0.466824,1.8386322 -1.111328,4.0117182 -0.644504,2.173087 -2.032321,6.851839 -3.083985,10.396485 -1.051661,3.544647 -2.043049,6.914954 -2.205078,7.488281 l -0.294922,1.041016 -10.345703,4.423828 c -11.871998,5.07584 -10.826673,4.640063 -10.636719,4.439453 0.277917,-0.293503 14.87719,-9.80349 17.642579,-11.492187 0.762057,-0.465357 1.430587,-0.928491 1.484375,-1.029297 0.0538,-0.100806 0.606555,-1.863686 1.228515,-3.917969 0.62196,-2.054285 1.519836,-5.014679 1.996094,-6.578125 0.476266,-1.563446 0.835479,-2.875457 0.796875,-2.914063 -0.118137,-0.118135 -6.547811,5.771258 -10.921875,10.003907 -2.50555,2.424543 -5.464579,5.461942 -6.564453,6.738281 -0.513458,0.595839 -0.408182,0.377308 0.564453,-1.171875 5.232394,-8.333981 11.58308,-15.419665 17.140625,-19.125 1.371474,-0.914393 4.019872,-2.3410485 4.292969,-2.3203126 z M 26.78125,18.417969 c 0.03193,0.03533 -0.403936,0.551303 -1.269531,1.49414 -3.773585,4.110258 -6.583945,7.945033 -8.091797,11.046875 C 16.95242,31.920689 16.539047,32.61387 16.5,32.498047 16.342359,32.03047 15.842557,29.145704 15.751953,28.177734 l -0.0957,-1.035156 1.806641,-1.408203 c 4.103726,-3.201569 8.442835,-6.619337 9.128906,-7.189453 0.116513,-0.09682 0.17881,-0.138731 0.189453,-0.126953 z"
       transform="scale(0.26458333)" />
  </g>
</svg>
