<?xml version="1.0" encoding="UTF-8" standalone="no"?>
<!-- Created with Inkscape (http://www.inkscape.org/) -->

<svg
   width="50"
   height="50"
   viewBox="0 0 13.229166 13.229167"
   version="1.1"
   id="svg827"
   inkscape:version="1.1 (c68e22c387, 2021-05-23)"
   sodipodi:docname="halloffame.svg"
   xmlns:inkscape="http://www.inkscape.org/namespaces/inkscape"
   xmlns:sodipodi="http://sodipodi.sourceforge.net/DTD/sodipodi-0.dtd"
   xmlns="http://www.w3.org/2000/svg"
   xmlns:svg="http://www.w3.org/2000/svg">
  <sodipodi:namedview
     id="namedview829"
     pagecolor="#ffffff"
     bordercolor="#cccccc"
     borderopacity="1"
     inkscape:pageshadow="0"
     inkscape:pageopacity="0"
     inkscape:pagecheckerboard="true"
     inkscape:document-units="mm"
     showgrid="false"
     units="px"
     inkscape:zoom="10.832772"
     inkscape:cx="13.062215"
     inkscape:cy="24.693587"
     inkscape:window-width="1920"
     inkscape:window-height="1111"
     inkscape:window-x="-9"
     inkscape:window-y="-9"
     inkscape:window-maximized="1"
     inkscape:current-layer="layer1" />
  <defs
     id="defs824" />
  <g
     inkscape:label="Layer 1"
     inkscape:groupmode="layer"
     id="layer1">
    <path
       id="path1474"
       style="fill:#ffffff;fill-rule:evenodd;stroke-width:8.07092;stroke-linecap:round;stroke-linejoin:round"
       d="M 24.511719,0.00390625 A 25.000001,25.000001 0 0 0 0.00195313,25.324219 25.000001,25.000001 0 0 0 25.162109,50 25.000001,25.000001 0 0 0 50,25 l -0.0078,-0.650391 A 25.000001,25.000001 0 0 0 24.511719,0.00390625 Z M 14.853516,10.136719 H 25 35.146484 l -0.0059,0.513672 c -0.0039,0.282977 -0.127514,1.153945 -0.273437,1.935547 -0.145924,0.7816 -0.216786,1.477594 -0.158204,1.544921 0.05857,0.06733 1.255854,0.121094 2.660157,0.121094 h 2.552734 v 1.267578 c 0,1.963782 -0.551226,4.622915 -1.349609,6.507813 -1.066392,2.517789 -3.324865,5.052531 -5.699219,6.398437 -1.076224,0.61006 -2.045725,1.350683 -2.460938,1.878907 -0.585573,0.744952 -2.645969,2.105643 -3.871093,2.55664 -0.288011,0.106026 -0.347657,0.406311 -0.347657,1.736328 v 1.607422 h 2.289063 2.287109 v 1.828125 1.830078 h -5.86914 -5.869141 v -1.830078 -1.828125 h 2.396484 2.396485 l -0.05859,-1.626953 -0.05859,-1.626953 -1.09375,-0.464844 c -1.279258,-0.542979 -2.545623,-1.490204 -3.214843,-2.404297 -0.260937,-0.356414 -1.273444,-1.091498 -2.25,-1.634765 -2.363239,-1.314693 -4.640845,-3.870506 -5.720704,-6.419922 -0.798385,-1.884899 -1.349609,-4.54403 -1.349609,-6.507813 v -1.267578 h 2.552734 c 1.404303,0 2.601577,-0.05377 2.660157,-0.121094 0.05858,-0.06733 -0.01225,-0.763321 -0.158204,-1.544921 -0.145923,-0.781602 -0.269595,-1.652571 -0.273437,-1.935547 z m -2.046875,6.839843 0.126953,1.060547 c 0.218419,1.831504 1.235449,3.905609 2.787109,5.685547 0.92029,1.055682 1.431533,1.500806 1.46875,1.277344 0.03141,-0.188651 -0.239264,-2.040076 -0.601562,-4.115234 l -0.658203,-3.773438 -1.560547,-0.06836 z m 23.667968,0.03906 c -0.214052,-1.4e-4 -0.496225,0.01297 -0.871093,0.0293 l -1.533204,0.06641 -0.646484,3.658203 c -0.846749,4.798877 -0.850947,4.666993 0.132813,3.771485 0.438298,-0.398979 1.093383,-1.152381 1.455078,-1.675782 0.361693,-0.523401 0.815301,-1.245204 1.009765,-1.603515 0.460275,-0.848088 1.115235,-3.042235 1.115235,-3.738281 0,-0.400103 -0.01995,-0.507394 -0.66211,-0.507813 z"
       transform="scale(0.26458333)" />
  </g>
</svg>
