<?xml version="1.0" encoding="UTF-8" standalone="no"?>
<!-- Created with Inkscape (http://www.inkscape.org/) -->

<svg
   width="50"
   height="50"
   viewBox="0 0 13.229166 13.229167"
   version="1.1"
   id="svg827"
   inkscape:version="1.1 (c68e22c387, 2021-05-23)"
   sodipodi:docname="info.svg"
   xmlns:inkscape="http://www.inkscape.org/namespaces/inkscape"
   xmlns:sodipodi="http://sodipodi.sourceforge.net/DTD/sodipodi-0.dtd"
   xmlns="http://www.w3.org/2000/svg"
   xmlns:svg="http://www.w3.org/2000/svg">
  <sodipodi:namedview
     id="namedview829"
     pagecolor="#ffffff"
     bordercolor="#cccccc"
     borderopacity="1"
     inkscape:pageshadow="0"
     inkscape:pageopacity="0"
     inkscape:pagecheckerboard="true"
     inkscape:document-units="mm"
     showgrid="false"
     units="px"
     inkscape:zoom="15.319853"
     inkscape:cx="19.484521"
     inkscape:cy="21.964962"
     inkscape:window-width="1920"
     inkscape:window-height="1111"
     inkscape:window-x="-9"
     inkscape:window-y="-9"
     inkscape:window-maximized="1"
     inkscape:current-layer="layer1" />
  <defs
     id="defs824" />
  <g
     inkscape:label="Layer 1"
     inkscape:groupmode="layer"
     id="layer1">
    <path
       id="path1474"
       style="fill:#ffffff;fill-rule:evenodd;stroke-width:8.07092;stroke-linecap:round;stroke-linejoin:round"
       d="M 24.511719,0.00390625 A 25.000001,25.000001 0 0 0 0.00195313,25.324219 25.000001,25.000001 0 0 0 25.162109,50 25.000001,25.000001 0 0 0 50,25 l -0.0078,-0.650391 A 25.000001,25.000001 0 0 0 24.511719,0.00390625 Z M 25,5.125 c 1.316804,0 2.438594,0.345032 3.365234,1.0351562 0.975411,0.6556181 1.462891,1.4491917 1.462891,2.3808594 0,0.9316677 -0.48748,1.7415164 -1.462891,2.4316404 -0.92664,0.655618 -2.04843,0.984375 -3.365234,0.984375 -1.316804,0 -2.46209,-0.328757 -3.4375,-0.984375 -0.92664,-0.690124 -1.390625,-1.4999727 -1.390625,-2.4316404 0,-0.9316677 0.463985,-1.7252413 1.390625,-2.3808594 C 22.53791,5.470032 23.683196,5.125 25,5.125 Z m 0,11.4375 c 1.121722,0 2.024244,0.241522 2.707031,0.724609 0.682788,0.483087 1.023438,1.122373 1.023438,1.916016 v 23.033203 c 0,0.759137 -0.34065,1.396469 -1.023438,1.914063 C 27.024244,44.633478 26.121722,44.875 25,44.875 c -1.072951,0 -1.975473,-0.241522 -2.707031,-0.724609 -0.682788,-0.517594 -1.023438,-1.154926 -1.023438,-1.914063 V 19.203125 c 0,-0.793643 0.34065,-1.432929 1.023438,-1.916016 C 23.024527,16.804022 23.927049,16.5625 25,16.5625 Z"
       transform="scale(0.26458333)" />
    <g
       aria-label="i"
       transform="scale(1.1888582,0.84114321)"
       id="text2259"
       style="font-weight:bold;font-size:16.281px;line-height:1.25;font-family:Montserrat;-inkscape-font-specification:'Montserrat Bold';stroke-width:0.254389" />
  </g>
</svg>
