<?xml version="1.0" encoding="UTF-8" standalone="no"?>
<svg
   id="Layer_2"
   data-name="Layer 2"
   viewBox="0 0 598.64 105.84"
   version="1.1"
   sodipodi:docname="ipl-powered-path.svg"
   inkscape:version="1.1 (c68e22c387, 2021-05-23)"
   xmlns:inkscape="http://www.inkscape.org/namespaces/inkscape"
   xmlns:sodipodi="http://sodipodi.sourceforge.net/DTD/sodipodi-0.dtd"
   xmlns="http://www.w3.org/2000/svg"
   xmlns:svg="http://www.w3.org/2000/svg">
  <sodipodi:namedview
     id="namedview944"
     pagecolor="#ffffff"
     bordercolor="#cccccc"
     borderopacity="1"
     inkscape:pageshadow="0"
     inkscape:pageopacity="1"
     inkscape:pagecheckerboard="0"
     showgrid="false"
     inkscape:zoom="1.8809301"
     inkscape:cx="299.32"
     inkscape:cy="52.899361"
     inkscape:window-width="1920"
     inkscape:window-height="1111"
     inkscape:window-x="-9"
     inkscape:window-y="-9"
     inkscape:window-maximized="1"
     inkscape:current-layer="Layer_2" />
  <defs
     id="defs887">
    <style
       id="style885">.cls-1,.cls-2{fill:none;stroke:#fff;stroke-miterlimit:10;}.cls-1{stroke-width:4.15px;}.cls-2{stroke-linecap:round;stroke-width:4px;}.cls-3{font-size:41px;fill:#fff;font-family:Roboto-Light, Roboto;font-weight:300;}.cls-4{letter-spacing:-0.01em;}.cls-5{letter-spacing:-0.01em;}.cls-6{letter-spacing:0em;}.cls-7{letter-spacing:-0.01em;}.cls-8{letter-spacing:0em;}.cls-9{font-family:Roboto-Black, Roboto;font-weight:800;}.cls-10{letter-spacing:-0.01em;}.cls-11{letter-spacing:0.01em;}</style>
  </defs>
  <path
     class="cls-1"
     d="M148.94,169.56c20.8,0,37.66-5.44,37.66-12.16a7.11,7.11,0,0,0-3.56-5.63l-25.85-38.55V87.33c1.33-.55,2.13-1.23,2.13-2,0-1.8-4.65-3.26-10.38-3.26H149c-5.73,0-10.38,1.46-10.38,3.26,0,.75.74,1.53,2.08,2.08l.06,25.79L114.9,151.77a7.11,7.11,0,0,0-3.56,5.63c0,6.72,16.86,12.16,37.66,12.16"
     transform="translate(-95.92 -70.52)"
     id="path889" />
  <path
     class="cls-2"
     d="M128.5,150.5c3.5,1,10.5,3.5,17.5,3.5"
     transform="translate(-95.92 -70.52)"
     id="path891" />
  <path
     class="cls-2"
     d="M132.5,143a45.29,45.29,0,0,0,14.75,2.75"
     transform="translate(-95.92 -70.52)"
     id="path893" />
  <path
     class="cls-2"
     d="M136.48,135.3a32.38,32.38,0,0,0,12,1.95"
     transform="translate(-95.92 -70.52)"
     id="path895" />
  <path
     class="cls-2"
     d="M140,127.5c2,.5,3.5,1.25,10,1.25"
     transform="translate(-95.92 -70.52)"
     id="path897" />
  <path
     class="cls-1"
     d="M187.38,90a51,51,0,0,1-.85,68.11"
     transform="translate(-95.92 -70.52)"
     id="path899" />
  <path
     class="cls-1"
     d="M118.09,83a51,51,0,0,1,65.74,3.32"
     transform="translate(-95.92 -70.52)"
     id="path901" />
  <path
     class="cls-1"
     d="M111.4,158.05a51,51,0,0,1-3.71-64.36"
     transform="translate(-95.92 -70.52)"
     id="path903" />
  <polyline
     class="cls-1"
     points="37.14 53.08 7.58 18.23 18.89 8.64 44.83 39.23"
     id="polyline905" />
  <path
     class="cls-1"
     d="M133.06,123.6"
     transform="translate(-95.92 -70.52)"
     id="path907" />
  <polyline
     class="cls-1"
     points="88.62 90.85 89.96 92.43 78.65 102.02 74.31 96.91"
     id="polyline909" />
  <path
     class="cls-1"
     d="M124.75,166.7"
     transform="translate(-95.92 -70.52)"
     id="path911" />
  <polyline
     class="cls-1"
     points="61.85 43.58 83.91 17.5 93.11 13.64 90.59 23.14 66.92 51.13"
     id="polyline913" />
  <polyline
     class="cls-1"
     points="28.83 96.18 23.14 102.91 16.46 97.27 20.22 92.82"
     id="polyline915" />
  <g
     aria-label="PoweredbyInklingPerformance Labs"
     transform="translate(121.08,44.46)"
     id="text941"
     class="cls-3"
     style="font-weight:300;font-size:41px;font-family:Roboto-Light, Roboto;fill:#ffffff">
    <path
       d="M 6.1459961,-11.871582 V 0 H 3.6835938 v -29.148437 h 9.9296872 q 4.544434,0 7.166992,2.322265 2.642579,2.322266 2.642579,6.386231 0,4.104004 -2.542481,6.346191 -2.522461,2.222168 -7.327148,2.222168 z m 0,-2.082031 h 7.4672849 q 3.583496,0 5.465332,-1.70166 1.881836,-1.701661 1.881836,-4.744629 0,-3.02295 -1.881836,-4.804688 -1.861816,-1.801758 -5.305175,-1.841797 H 6.1459961 Z"
       style="letter-spacing:-0.01em"
       id="path1026" />
    <path
       d="m 26.781757,-11.150879 q 0,-3.123047 1.201172,-5.625488 1.221192,-2.502442 3.42334,-3.883789 2.222168,-1.401367 5.024902,-1.401367 4.324219,0 7.006836,3.042968 2.682618,3.02295 2.682618,8.027832 v 0.500489 q 0,3.143066 -1.221192,5.665527 -1.201172,2.5024414 -3.40332,3.8637695 -2.202149,1.36132813 -5.024903,1.36132813 -4.304199,0 -7.006835,-3.02294923 -2.682618,-3.0429687 -2.682618,-8.0478514 z m 2.402344,0.660645 q 0,3.8837887 2.001953,6.3862301 2.021973,2.4824219 5.285156,2.4824219 3.243165,0 5.245118,-2.4824219 Q 43.7383,-6.6064453 43.7383,-10.69043 v -0.460449 q 0,-2.482422 -0.920898,-4.544434 -0.920899,-2.062011 -2.58252,-3.183105 -1.661621,-1.141113 -3.803711,-1.141113 -3.203125,0 -5.225097,2.522461 -2.021973,2.502441 -2.021973,6.566406 z"
       id="path1028" />
    <path
       d="m 56.250507,-4.9848633 0.360352,1.8618164 0.480469,-1.961914 5.205078,-16.5761721 h 2.041992 l 5.14502,16.4360353 0.560546,2.2822266 0.46045,-2.1020508 4.444336,-16.6162111 h 2.482421 L 71.125019,0 h -2.041992 l -5.56543,-17.176758 -0.260254,-1.181152 -0.260254,1.201172 L 57.531757,0 h -2.041992 l -6.286133,-21.661133 h 2.462403 z"
       id="path1030" />
    <path
       d="m 90.363789,0.40039063 q -2.762696,0 -5.004883,-1.36132813 -2.222168,-1.3613281 -3.463379,-3.7836914 -1.241211,-2.4423828 -1.241211,-5.4653321 v -0.86084 q 0,-3.123047 1.201172,-5.625488 1.221191,-2.502441 3.383301,-3.923828 2.162109,-1.441406 4.68457,-1.441406 3.943848,0 6.246094,2.702636 2.322265,2.682617 2.322265,7.347168 v 1.341309 H 83.03664 v 0.460449 q 0,3.6835938 2.102051,6.1459962 2.12207,2.4423828 5.325195,2.4423828 1.921875,0 3.383301,-0.7006836 1.481445,-0.7006836 2.682617,-2.2421875 l 1.501465,1.1411133 q -2.642578,3.82373043 -7.66748,3.82373043 z M 89.923359,-20.019531 q -2.702637,0 -4.564453,1.981933 -1.841797,1.981934 -2.242188,5.325196 h 12.992676 v -0.260254 q -0.100098,-3.123047 -1.781738,-5.084961 -1.681641,-1.961914 -4.404297,-1.961914 z"
       id="path1032" />
    <path
       d="m 113.17281,-19.619141 q -0.76074,-0.140136 -1.62158,-0.140136 -2.24219,0 -3.80371,1.26123 -1.5415,1.241211 -2.20215,3.623535 V 0 h -2.38232 v -21.661133 h 2.34228 l 0.04,3.44336 q 1.90186,-3.84375 6.10596,-3.84375 1.00098,0 1.58154,0.260253 z"
       style="letter-spacing:-0.01em"
       id="path1034" />
    <path
       d="m 124.96123,0.40039063 q -2.7627,0 -5.00489,-1.36132813 -2.22216,-1.3613281 -3.46337,-3.7836914 -1.24122,-2.4423828 -1.24122,-5.4653321 v -0.86084 q 0,-3.123047 1.20118,-5.625488 1.22119,-2.502441 3.3833,-3.923828 2.16211,-1.441406 4.68457,-1.441406 3.94385,0 6.24609,2.702636 2.32227,2.682617 2.32227,7.347168 v 1.341309 h -15.45508 v 0.460449 q 0,3.6835938 2.10205,6.1459962 2.12207,2.4423828 5.3252,2.4423828 1.92187,0 3.3833,-0.7006836 1.48144,-0.7006836 2.68261,-2.2421875 l 1.50147,1.1411133 q -2.64258,3.82373043 -7.66748,3.82373043 z M 124.5208,-20.019531 q -2.70264,0 -4.56446,1.981933 -1.84179,1.981934 -2.24218,5.325196 h 12.99267 v -0.260254 q -0.10009,-3.123047 -1.78174,-5.084961 -1.68164,-1.961914 -4.40429,-1.961914 z"
       style="letter-spacing:0em"
       id="path1036" />
    <path
       d="m 136.79277,-11.030762 q 0,-5.044922 2.24219,-8.027832 2.2622,-3.002929 6.12597,-3.002929 4.38428,0 6.68653,3.463378 V -30.75 h 2.38232 V 0 h -2.24219 l -0.10009,-2.8828125 q -2.30225,3.28320313 -6.7666,3.28320313 -3.74366,0 -6.0459,-3.00292973 -2.28223,-3.0229492 -2.28223,-8.1479489 z m 2.42236,0.42041 q 0,4.1440434 1.66162,6.5463872 1.66163,2.3823242 4.68458,2.3823242 4.42431,0 6.28613,-3.9038086 V -15.755371 q -1.86182,-4.224121 -6.2461,-4.224121 -3.02295,0 -4.70459,2.382324 -1.68164,2.362305 -1.68164,6.986816 z"
       style="letter-spacing:0em"
       id="path1038" />
    <path
       d="m 187.94006,-10.610352 q 0,5.0649418 -2.24218,8.047852 -2.24219,2.96289063 -6.02588,2.96289063 -4.52442,0 -6.84668,-3.36328123 L 172.72522,0 h -2.24219 v -30.75 h 2.38233 v 12.231934 q 2.28222,-3.543457 6.7666,-3.543457 3.84375,0 6.06592,2.942871 2.24218,2.922851 2.24218,8.147949 z m -2.40234,-0.42041 q 0,-4.284179 -1.66162,-6.606445 -1.66162,-2.342285 -4.68457,-2.342285 -2.30225,0 -3.90381,1.141113 -1.60156,1.121094 -2.42236,3.303223 v 9.769531 q 1.80175,4.0839844 6.36621,4.0839844 2.96289,0 4.62451,-2.3422852 1.68164,-2.3422851 1.68164,-7.0068362 z"
       style="letter-spacing:-0.01em"
       id="path1040" />
    <path
       d="m 199.86975,-3.4433594 6.32617,-18.2177736 h 2.58252 l -9.24902,25.3447268 -0.48047,1.1210937 q -1.78174,3.9438477 -5.50537,3.9438477 -0.86084,0 -1.8418,-0.2802735 l -0.02,-1.9819336 1.24121,0.1201172 q 1.76172,0 2.84278,-0.8808594 1.10107,-0.8608398 1.86181,-2.9829101 l 1.06104,-2.92285158 -8.16797,-21.48095722 h 2.62256 z"
       style="letter-spacing:0em"
       id="path1042" />
    <path
       d="M 9.6894531,44 H 2.6826172 V 14.851563 h 7.0068359 z"
       id="path1044" />
    <path
       d="m 20.459961,22.338867 0.220215,2.542481 q 2.242187,-2.942871 6.186035,-2.942871 3.383301,0 5.044922,2.021972 1.68164,2.021973 1.741699,6.085938 V 44 H 26.88623 V 30.32666 q 0,-1.641601 -0.660644,-2.402344 -0.660645,-0.780761 -2.402344,-0.780761 -1.981933,0 -2.942871,1.561523 V 44 H 14.133789 V 22.338867 Z"
       id="path1046" />
    <path
       d="m 46.084961,35.932129 -1.901856,1.901855 V 44 H 37.436523 V 13.22998 h 6.746582 v 16.335938 l 0.680665,-0.900879 5.08496,-6.326172 h 8.087891 L 50.449219,31.247559 58.537109,44 H 50.80957 Z"
       id="path1048" />
    <path
       d="M 66.925293,44 H 60.158691 V 13.25 h 6.766602 z"
       id="path1050" />
    <path
       d="M 78.196289,44 H 71.429687 V 22.338867 h 6.766602 z M 71.029297,16.753418 q 0,-1.441406 1.041015,-2.362305 1.041016,-0.920898 2.702637,-0.920898 1.661621,0 2.702637,0.920898 1.041016,0.920899 1.041016,2.362305 0,1.441406 -1.041016,2.362305 -1.041016,0.920898 -2.702637,0.920898 -1.661621,0 -2.702637,-0.920898 -1.041015,-0.920899 -1.041015,-2.362305 z"
       id="path1052" />
    <path
       d="m 88.546387,22.338867 0.220215,2.542481 q 2.242187,-2.942871 6.186035,-2.942871 3.3833,0 5.044922,2.021972 1.681641,2.021973 1.741701,6.085938 V 44 H 94.972656 V 30.32666 q 0,-1.641601 -0.660644,-2.402344 -0.660645,-0.780761 -2.402344,-0.780761 -1.981934,0 -2.942871,1.561523 V 44 H 82.220215 V 22.338867 Z"
       id="path1054" />
    <path
       d="m 104.68213,33.009277 q 0,-3.283203 1.08105,-5.805664 1.08106,-2.522461 3.10303,-3.883789 2.02197,-1.381347 4.70459,-1.381347 3.3833,0 5.28516,2.282226 l 0.24023,-1.881836 h 6.12598 v 20.840332 q 0,2.862793 -1.34131,4.964844 -1.32129,2.12207 -3.84375,3.243164 -2.52246,1.141113 -5.8457,1.141113 -2.38233,0 -4.62452,-0.900879 -2.22216,-0.900879 -3.40332,-2.342285 l 2.82276,-3.963867 q 1.88183,2.222168 4.96484,2.222168 4.48438,0 4.48438,-4.604492 v -0.680664 q -1.9419,2.14209 -4.90479,2.14209 -3.96387,0 -6.40625,-3.02295 -2.44238,-3.042968 -2.44238,-8.127929 z m 6.7666,0.42041 q 0,2.662598 1.00098,4.224122 1.00097,1.541503 2.80273,1.541503 2.18213,0 3.18311,-1.461425 V 28.625 q -0.98096,-1.481445 -3.14307,-1.481445 -1.80176,0 -2.82275,1.621582 -1.021,1.601562 -1.021,4.66455 z"
       id="path1056" />
    <path
       d="M 146.599,34.110352 V 44 h -7.02686 V 14.851563 h 11.63135 q 3.34326,0 5.90576,1.24121 2.58252,1.221192 3.98389,3.503418 1.42139,2.262207 1.42139,5.14502 0,4.26416 -3.06299,6.82666 -3.04297,2.542481 -8.36817,2.542481 z m 0,-5.425293 h 4.60449 q 2.04199,0 3.10303,-1.020997 1.08105,-1.020996 1.08105,-2.882812 0,-2.041992 -1.10107,-3.263184 -1.10108,-1.221191 -3.00293,-1.241211 H 146.599 Z"
       style="letter-spacing:-0.01em"
       id="path1058" />
    <path
       d="m 176.17207,44.400391 q -4.98486,0 -8.06787,-2.962891 -3.08301,-2.98291 -3.08301,-7.747559 v -0.560546 q 0,-3.323243 1.2212,-5.865723 1.24121,-2.542481 3.60351,-3.923828 2.36231,-1.401367 5.60547,-1.401367 4.56445,0 7.20703,2.842773 2.64258,2.822754 2.64258,7.887695 v 2.622559 h -13.41309 q 0.36036,1.821777 1.58155,2.862793 1.22119,1.041015 3.16308,1.041015 3.20313,0 5.00489,-2.242187 l 3.083,3.643555 q -1.26123,1.741699 -3.58349,2.782715 -2.30225,1.020996 -4.96485,1.020996 z m -0.76074,-17.256836 q -2.96289,0 -3.52344,3.923828 h 6.80664 v -0.520508 q 0.04,-1.621582 -0.8208,-2.502441 -0.86084,-0.900879 -2.4624,-0.900879 z"
       style="letter-spacing:0em"
       id="path1060" />
    <path
       d="m 201.11462,28.444824 -2.22216,-0.160156 q -3.18311,0 -4.08399,2.001953 V 44 h -6.74658 V 22.338867 h 6.32617 l 0.22022,2.782715 q 1.70166,-3.183105 4.74463,-3.183105 1.08105,0 1.88183,0.240234 z"
       style="letter-spacing:0.01em"
       id="path1062" />
    <path
       d="M 205.4433,44 V 27.023437 h -3.14307 v -4.68457 h 3.14307 v -1.72168 q 0,-3.703613 2.18213,-5.745605 2.18213,-2.041992 6.12597,-2.041992 1.44141,0 3.16309,0.42041 l 0.02,4.964844 q -0.62061,-0.180176 -1.66162,-0.180176 -3.06299,0 -3.06299,2.642578 v 1.661621 h 4.22412 v 4.68457 h -4.2241 V 44 Z"
       style="letter-spacing:0em"
       id="path1064" />
    <path
       d="m 217.95551,32.969238 q 0,-3.243164 1.26123,-5.765625 1.26123,-2.54248 3.62353,-3.903808 2.36231,-1.361328 5.54541,-1.361328 4.86475,0 7.66748,3.022949 2.80274,3.002929 2.80274,8.187988 v 0.240234 q 0,5.064942 -2.82276,8.047852 -2.80273,2.962891 -7.60742,2.962891 -4.62451,0 -7.42725,-2.762696 -2.80273,-2.782715 -3.02295,-7.527343 z m 6.74658,0.42041 q 0,3.00293 0.94092,4.404297 0.94091,1.401367 2.78271,1.401367 3.60352,0 3.68359,-5.54541 v -0.680664 q 0,-5.825683 -3.72363,-5.825683 -3.3833,0 -3.66357,5.024902 z"
       style="letter-spacing:0em"
       id="path1066" />
    <path
       d="m 254.93158,28.444824 -2.22217,-0.160156 q -3.1831,0 -4.08398,2.001953 V 44 h -6.74658 V 22.338867 h 6.32617 l 0.22021,2.782715 q 1.70166,-3.183105 4.74463,-3.183105 1.08106,0 1.88184,0.240234 z"
       style="letter-spacing:0em"
       id="path1068" />
    <path
       d="m 263.74017,22.338867 0.22022,2.542481 q 2.30224,-2.942871 6.18603,-2.942871 4.10401,0 5.54541,3.263183 2.20215,-3.263183 6.36621,-3.263183 6.58643,0 6.76661,7.967773 V 44 h -6.76661 V 30.32666 q 0,-1.661621 -0.56054,-2.422363 -0.56055,-0.760742 -2.04199,-0.760742 -2.00196,0 -2.98291,1.781738 l 0.02,0.280273 V 44 H 269.726 V 30.366699 q 0,-1.70166 -0.54052,-2.462402 -0.54053,-0.760742 -2.06202,-0.760742 -1.94189,0 -2.96289,1.781738 V 44 H 257.414 V 22.338867 Z"
       style="letter-spacing:0em"
       id="path1070" />
    <path
       d="m 304.88031,44 q -0.36035,-0.660645 -0.64062,-1.941895 -1.86182,2.342286 -5.20508,2.342286 -3.06299,0 -5.20508,-1.841797 -2.14209,-1.861817 -2.14209,-4.664551 0,-3.523438 2.60254,-5.325195 2.60254,-1.801758 7.56738,-1.801758 h 2.08203 v -1.141113 q 0,-2.982911 -2.58252,-2.982911 -2.40234,0 -2.40234,2.362305 h -6.74658 q 0,-3.143066 2.66259,-5.10498 2.68262,-1.961914 6.82666,-1.961914 4.14405,0 6.54639,2.021972 2.40235,2.021973 2.4624,5.54541 v 9.589356 q 0.04,2.98291 0.9209,4.564453 V 44 Z m -4.22412,-4.404297 q 1.26123,0 2.08203,-0.540527 0.84082,-0.540528 1.20117,-1.221192 v -3.463379 h -1.96191 q -3.52344,0 -3.52344,3.163086 0,0.920899 0.62061,1.501465 0.6206,0.560547 1.58154,0.560547 z"
       style="letter-spacing:0em"
       id="path1072" />
    <path
       d="m 320.63568,22.338867 0.22022,2.542481 q 2.24218,-2.942871 6.18603,-2.942871 3.3833,0 5.04492,2.021972 1.68164,2.021973 1.7417,6.085938 V 44 h -6.7666 V 30.32666 q 0,-1.641601 -0.66064,-2.402344 -0.66065,-0.780761 -2.40235,-0.780761 -1.98193,0 -2.94287,1.561523 V 44 h -6.74658 V 22.338867 Z"
       style="letter-spacing:0em"
       id="path1074" />
    <path
       d="m 346.72113,39.195312 q 1.42139,0 2.20215,-0.760742 0.78076,-0.780761 0.76074,-2.162109 h 6.32617 q 0,3.563476 -2.5625,5.845703 -2.54248,2.282227 -6.5664,2.282227 -4.72461,0 -7.44727,-2.962891 -2.72266,-2.962891 -2.72266,-8.208008 v -0.280273 q 0,-3.283203 1.20118,-5.785645 1.22119,-2.522461 3.50341,-3.863769 2.28223,-1.361328 5.40528,-1.361328 4.22412,0 6.70654,2.342285 2.48242,2.342285 2.48242,6.346191 h -6.32617 q 0,-1.681641 -0.8208,-2.582519 -0.8208,-0.900879 -2.20215,-0.900879 -2.62256,0 -3.06299,3.343261 -0.14013,1.061036 -0.14013,2.922852 0,3.263184 0.78076,4.524414 0.78076,1.26123 2.48242,1.26123 z"
       style="letter-spacing:0em"
       id="path1076" />
    <path
       d="m 369.3432,44.400391 q -4.98486,0 -8.06787,-2.962891 -3.08301,-2.98291 -3.08301,-7.747559 v -0.560546 q 0,-3.323243 1.22119,-5.865723 1.24121,-2.542481 3.60352,-3.923828 2.3623,-1.401367 5.60547,-1.401367 4.56445,0 7.20703,2.842773 2.64258,2.822754 2.64258,7.887695 v 2.622559 h -13.41309 q 0.36035,1.821777 1.58154,2.862793 1.2212,1.041015 3.16309,1.041015 3.20312,0 5.00488,-2.242187 l 3.08301,3.643555 q -1.26123,1.741699 -3.5835,2.782715 -2.30224,1.020996 -4.96484,1.020996 z m -0.76074,-17.256836 q -2.96289,0 -3.52344,3.923828 h 6.80664 v -0.520508 q 0.04,-1.621582 -0.8208,-2.502441 -0.86084,-0.900879 -2.4624,-0.900879 z"
       style="letter-spacing:0em"
       id="path1078" />
    <path
       d="m 398.73187,38.594727 h 12.23194 V 44 H 391.70502 V 14.851563 h 7.02685 z"
       style="letter-spacing:0em"
       id="path1080" />
    <path
       d="m 425.8183,44 q -0.36035,-0.660645 -0.64063,-1.941895 -1.86181,2.342286 -5.20507,2.342286 -3.06299,0 -5.20508,-1.841797 -2.14209,-1.861817 -2.14209,-4.664551 0,-3.523438 2.60254,-5.325195 2.60254,-1.801758 7.56738,-1.801758 h 2.08203 v -1.141113 q 0,-2.982911 -2.58252,-2.982911 -2.40234,0 -2.40234,2.362305 h -6.74658 q 0,-3.143066 2.66259,-5.10498 2.68262,-1.961914 6.82666,-1.961914 4.14405,0 6.54639,2.021972 2.40234,2.021973 2.4624,5.54541 v 9.589356 q 0.04,2.98291 0.9209,4.564453 V 44 Z m -4.22412,-4.404297 q 1.26123,0 2.08203,-0.540527 0.84082,-0.540528 1.20117,-1.221192 v -3.463379 h -1.96191 q -3.52344,0 -3.52344,3.163086 0,0.920899 0.6206,1.501465 0.62061,0.560547 1.58155,0.560547 z"
       style="letter-spacing:0em"
       id="path1082" />
    <path
       d="m 455.48724,33.349609 q 0,5.325196 -2.20214,8.187989 -2.20215,2.862793 -6.20606,2.862793 -3.30322,0 -5.32519,-2.622559 L 441.47357,44 h -6.0459 V 13.25 h 6.74659 v 10.830566 q 1.88183,-2.142089 4.86474,-2.142089 4.04395,0 6.2461,2.902832 2.20214,2.902832 2.20214,8.167968 z m -6.7666,-0.42041 q 0,-3.123047 -0.84082,-4.444336 -0.8208,-1.341308 -2.54248,-1.341308 -2.28223,0 -3.16308,1.741699 v 8.608398 q 0.86084,1.72168 3.20312,1.72168 2.38232,0 3.02295,-2.322266 0.32031,-1.141113 0.32031,-3.963867 z"
       style="letter-spacing:0em"
       id="path1084" />
    <path
       d="m 469.80121,37.914062 q 0,-0.860839 -0.90088,-1.381347 -0.90088,-0.520508 -3.42334,-1.081055 -2.52246,-0.560547 -4.16406,-1.461426 -1.6416,-0.920898 -2.50244,-2.222168 -0.86084,-1.301269 -0.86084,-2.98291 0,-2.98291 2.4624,-4.904785 2.4624,-1.941894 6.44629,-1.941894 4.28418,0 6.88672,1.941894 2.60254,1.941895 2.60254,5.104981 h -6.76661 q 0,-2.60254 -2.74267,-2.60254 -1.06104,0 -1.78174,0.600586 -0.7207,0.580567 -0.7207,1.461426 0,0.900879 0.88086,1.461426 0.88086,0.560547 2.80273,0.920898 1.94189,0.360352 3.40332,0.86084 4.88477,1.681641 4.88477,6.025879 0,2.962891 -2.64258,4.824707 -2.62256,1.861817 -6.80664,1.861817 -2.78272,0 -4.96485,-1.000977 -2.18213,-1.000977 -3.40332,-2.722656 -1.22119,-1.72168 -1.22119,-3.623535 h 6.30615 q 0.04,1.501464 1.00098,2.202148 0.96094,0.680664 2.4624,0.680664 1.38135,0 2.06201,-0.560547 0.70069,-0.560547 0.70069,-1.461426 z"
       style="letter-spacing:0em"
       id="path1086" />
  </g>
</svg>
