<?xml version="1.0" encoding="UTF-8" standalone="no"?>
<!-- Created with Inkscape (http://www.inkscape.org/) -->

<svg
   width="1280"
   height="720"
   viewBox="0 0 338.66667 190.5"
   version="1.1"
   id="svg5"
   inkscape:version="1.1 (c68e22c387, 2021-05-23)"
   sodipodi:docname="two-to-three.svg"
   xmlns:inkscape="http://www.inkscape.org/namespaces/inkscape"
   xmlns:sodipodi="http://sodipodi.sourceforge.net/DTD/sodipodi-0.dtd"
   xmlns="http://www.w3.org/2000/svg"
   xmlns:svg="http://www.w3.org/2000/svg">
  <sodipodi:namedview
     id="namedview7"
     pagecolor="#ffffff"
     bordercolor="#cccccc"
     borderopacity="1"
     inkscape:pageshadow="0"
     inkscape:pageopacity="1"
     inkscape:pagecheckerboard="0"
     inkscape:document-units="mm"
     showgrid="false"
     units="px"
     inkscape:zoom="0.47874542"
     inkscape:cx="404.18142"
     inkscape:cy="391.64866"
     inkscape:window-width="1920"
     inkscape:window-height="1111"
     inkscape:window-x="-9"
     inkscape:window-y="-9"
     inkscape:window-maximized="1"
     inkscape:current-layer="layer1" />
  <defs
     id="defs2" />
  <g
     inkscape:label="Layer 1"
     inkscape:groupmode="layer"
     id="layer1">
    <path
       style="fill:#ffffff;stroke-width:0.264583;fill-opacity:1"
       d="m 13.310747,150.31574 c -1.735574,-1.53425 -3.3139749,-4.16403 -4.6704569,-7.78146 -1.2678459,-3.38106 -2.0257109,-8.56462 -2.0257109,-13.85526 0,-2.67435 0.01947,-2.76306 0.801921,-3.65422 0.441055,-0.50233 6.1261568,-5.17968 12.6335588,-10.3941 18.153719,-14.54668 22.503199,-18.243477 28.247269,-24.008457 4.45453,-4.470744 6.16642,-6.914114 6.99459,-9.983334 0.5426,-2.01092 0.55114,-2.20368 0.16491,-3.72557 -0.95522,-3.76398 -3.31053,-5.23319 -8.38943,-5.23319 -6.4575,0 -13.14879,2.62933 -22.63097,8.89281 -2.068494,1.36635 -3.876572,2.48427 -4.01795,2.48427 -0.40277,0 -2.937948,-2.87625 -4.081146,-4.6302 -4.454128,-6.83376 -7.2162779,-17.617902 -6.5396059,-25.532295 0.118197,-1.382448 0.2242499,-2.546477 0.2356699,-2.586732 0.04292,-0.151273 6.894959,-3.328526 10.074933,-4.671692 7.370746,-3.113275 14.248029,-5.02109 21.166669,-5.871804 4.03753,-0.496454 15.10277,-0.587539 17.33021,-0.142655 8.1494,1.62767 9.38355,1.960644 12.48428,3.368245 2.93744,1.333472 8.65591,5.338668 11.24488,7.875874 6.332717,6.20609 8.807317,11.77505 8.778627,19.755849 -0.0289,8.04113 -2.62387,14.49736 -8.929867,22.217204 -4.13646,5.0639 -12.65632,12.473037 -18.48871,16.078367 -0.83895,0.51861 -1.49379,0.96878 -1.45521,1.00039 0.0386,0.0316 1.67751,-0.33978 3.64204,-0.8253 1.96453,-0.48552 4.52437,-1.0183 5.68854,-1.18397 1.16417,-0.16567 4.14073,-0.69879 6.61458,-1.18471 2.47386,-0.48593 6.22433,-1.13734 8.334377,-1.44759 2.11006,-0.31025 4.09642,-0.61469 4.41414,-0.67653 0.71537,-0.13924 1.00636,-0.96361 0.60491,-1.71373 -0.40063,-0.74859 -0.6271,-5.131897 -0.33397,-6.464287 0.4456,-2.02549 2.81331,-2.86288 6.42743,-2.27318 8.189915,1.33631 21.264525,4.37928 27.463575,6.391817 10.79939,3.50606 11.36027,3.71325 13.03122,4.81375 1.85376,1.2209 2.74012,2.33222 3.18866,3.99797 0.92459,3.43368 -1.69614,7.62322 -9.94909,15.90476 -4.65597,4.6721 -14.42611,13.97046 -19.84375,18.88556 -4.34903,3.94562 -8.01833,5.64465 -10.90244,5.04827 -1.179635,-0.24393 -1.575285,-0.50098 -2.754875,-1.78984 -0.75757,-0.82775 -1.59209,-1.98905 -1.85447,-2.58065 -0.48995,-1.10472 -1.20608,-4.41526 -1.51296,-6.99415 l -0.17316,-1.45521 -5.55625,0.0246 c -10.233607,0.0453 -19.512537,1.08686 -33.072927,3.71255 -12.3611,2.39347 -28.420413,6.75465 -37.835418,10.27484 -2.828411,1.05752 -3.284153,1.05081 -4.548623,-0.067 z m 7.194457,-6.05506 c 15.900754,-5.40663 34.660704,-9.75026 50.008574,-11.57884 9.21689,-1.09812 23.080617,-1.80014 25.397687,-1.28606 l 1.05833,0.2348 0.20761,3.95759 c 0.24472,4.6649 0.67156,6.4037 1.90136,7.74541 0.8671,0.946 0.946535,0.97413 2.699505,0.95573 2.36669,-0.0248 2.93675,-0.34534 6.96548,-3.91616 15.73674,-13.94803 25.99138,-24.32602 27.58815,-27.91999 1.33418,-3.00292 -0.46478,-5.10134 -6.23545,-7.27341 -6.99095,-2.63139 -30.418925,-8.364187 -34.181545,-8.364187 -2.23916,0 -2.65772,0.99938 -1.94842,4.652217 0.39895,2.05454 0.53058,2.19681 1.81521,1.9619 1.16336,-0.21274 2.71508,-0.002 3.6355,0.49261 0.860965,0.46311 0.732495,0.6159 -0.34751,0.41329 -2.53584,-0.47573 -6.14202,1.27286 -7.64691,3.70789 -0.71513,1.15714 -0.80127,1.5186 -0.78735,3.30392 0.0118,1.51762 0.15466,2.27173 0.58793,3.10409 0.52535,1.00928 1.53043,2.03721 2.21503,2.26541 0.15317,0.0511 -0.0739,0.47004 -0.50453,0.93106 -2.04588,2.19012 -1.68039,6.64954 0.73755,8.99903 2.29007,2.22524 6.905355,2.57235 9.628795,0.72417 0.53303,-0.36172 1.01719,-0.65768 1.07592,-0.65768 0.0587,0 -0.0174,0.35608 -0.16907,0.79129 -0.33621,0.96447 -1.55147,2.02771 -3.10818,2.71938 -1.631395,0.72486 -5.724915,0.56538 -7.362865,-0.28684 -2.63852,-1.37283 -3.99583,-3.47382 -4.24435,-6.5699 -0.10445,-1.3012 0.008,-2.0266 0.5604,-3.62732 0.75797,-2.19491 0.76855,-2.12047 -0.66348,-4.66827 -1.12757,-2.00613 -1.39564,-3.32604 -1.04781,-5.15917 0.13803,-0.72749 0.23104,-1.33982 0.20667,-1.36074 -0.25929,-0.22255 -15.006507,2.29291 -21.343277,3.64056 -7.61644,1.61979 -19.81501,4.92478 -21.49425,5.82348 -0.2624,0.14044 -0.59677,0.18138 -0.74303,0.091 -0.14626,-0.0904 3.15946,-2.60891 7.34604,-5.59671 12.96574,-9.25313 16.85184,-12.33727 21.9242,-17.399707 6.34304,-6.330658 10.02972,-12.299464 11.775467,-19.064724 0.80894,-3.1349 0.89186,-8.866162 0.1665,-11.509379 -1.09234,-3.980545 -3.418797,-7.678129 -7.003187,-11.130601 -3.17656,-3.059657 -3.83327,-3.595736 -6.30867,-5.149841 -13.61854,-8.549982 -36.61998,-7.35073 -56.78523,2.960674 -2.675964,1.368342 -2.845824,1.503964 -3.015337,2.407538 -0.25994,1.385601 0.343318,6.989211 1.079055,10.023246 1.197026,4.936305 3.347337,9.859983 5.489916,12.570543 l 1.031047,1.30438 0.977595,-0.76422 c 2.665178,-2.08345 8.987594,-5.30038 13.280724,-6.757417 10.10243,-3.428643 18.4278,-2.899788 22.30909,1.417137 2.85311,3.17334 2.63704,8.37892 -0.56779,13.67962 -4.12613,6.824514 -13.02959,15.203071 -32.946449,31.004111 -4.982147,3.95259 -13.259969,10.7009 -13.484418,10.99288 -0.6245539,0.81247 0.46645,9.21535 1.638972,12.62335 1.199187,3.48549 3.143584,6.50598 3.966808,6.16217 0.236863,-0.0989 2.335659,-0.8276 4.663993,-1.61929 z m 77.734221,-20.09359 c -2.30587,-1.13702 -2.70145,-4.40909 -0.76692,-6.34362 0.76949,-0.76948 2.33003,-1.4343 3.333755,-1.42023 0.49432,0.007 2.56655,2.88004 3.26376,4.52514 l 0.51974,1.22637 -0.56542,0.79406 c -1.06211,1.49159 -3.9831,2.10674 -5.784915,1.21828 z m -1.134,-10.22636 c -2.752,-1.45529 -2.83078,-5.10866 -0.1441,-6.68315 1.09757,-0.64322 2.51237,-0.82506 3.778785,-0.48568 0.76224,0.20428 0.76913,0.89721 0.0377,3.78964 -0.31922,1.26235 -0.49601,2.58471 -0.41351,3.09308 l 0.14411,0.88802 h -1.132385 c -0.66805,0 -1.5991,-0.24681 -2.2706,-0.60191 z"
       id="path836" />
    <path
       style="fill:#ffffff;stroke-width:0.184999;fill-opacity:1"
       d="m 241.79972,172.09289 c -2.77875,-0.56908 -22.57488,-7.30083 -29.63843,-10.07864 -5.37184,-2.11255 -6.97225,-2.95172 -11.11473,-5.82804 -0.74316,-0.51601 -1.10415,-0.96683 -1.77768,-2.21999 l -0.84514,-1.57249 -0.006,-2.3125 c -0.004,-2.17339 0.0255,-2.37104 0.5065,-3.28623 1.32046,-2.51213 3.21986,-4.71109 6.85111,-7.93164 1.36095,-1.20701 2.63446,-2.31944 2.83003,-2.47206 0.19557,-0.15262 1.30603,-1.06837 2.4677,-2.03499 1.16165,-0.96662 2.30037,-1.88236 2.53047,-2.035 0.23011,-0.15262 1.24575,-0.94349 2.257,-1.75748 2.34059,-1.88406 4.79752,-3.80497 5.32401,-4.16249 0.22475,-0.15263 2.01944,-1.48999 3.98819,-2.97194 4.44015,-3.34225 4.57015,-3.43216 5.87904,-4.06621 1.43144,-0.6934 3.05936,-0.99168 4.72484,-0.86571 1.60195,0.12115 2.72296,0.57207 3.76686,1.51517 1.24151,1.12162 1.85863,2.51222 2.83515,6.38869 l 0.25633,1.01749 2.30861,-0.0386 c 1.26974,-0.0212 3.18275,-0.16527 4.25111,-0.32009 3.65708,-0.52993 9.99889,-1.68905 10.63746,-1.94426 0.20351,-0.0813 1.11925,-0.31711 2.03499,-0.52398 3.13431,-0.708 4.25525,-0.98801 4.62498,-1.15535 0.20351,-0.0921 0.91113,-0.29805 1.57251,-0.45769 0.66137,-0.15962 1.36898,-0.36149 1.57248,-0.4486 0.2035,-0.0871 1.369,-0.47237 2.58999,-0.85612 1.221,-0.38376 2.30324,-0.75649 2.40499,-0.82828 0.10179,-0.0718 0.64287,-0.27742 1.2025,-0.45699 0.55961,-0.17955 1.10074,-0.38849 1.20249,-0.46432 0.1018,-0.0759 0.39313,-0.19895 0.6475,-0.2736 1.31633,-0.38628 6.01824,-2.71582 8.09979,-4.01301 7.40163,-4.61256 11.55906,-8.92054 12.24168,-12.68491 0.53682,-2.96047 -0.92083,-5.66383 -3.6211,-6.71563 -1.50232,-0.58519 -5.59726,-0.7211 -8.40138,-0.27887 -3.81829,0.60218 -7.65483,1.68613 -11.64897,3.29122 -1.27188,0.5111 -2.70567,1.07708 -3.18621,1.2577 l -0.87372,0.32843 -1.70275,-1.60095 c -1.36074,-1.27939 -3.14242,-3.27511 -4.56725,-5.11593 -0.3999,-0.51667 -1.88486,-3.08564 -2.29913,-3.97749 -0.77759,-1.674 -1.39833,-3.34967 -1.71327,-4.62499 -0.16334,-0.661369 -0.37869,-1.493869 -0.47857,-1.849996 -0.24701,-0.880697 -0.43037,-6.118099 -0.26745,-7.639379 l 0.13192,-1.231876 1.51199,-0.756523 c 1.55891,-0.780018 4.19077,-2.385376 6.13697,-3.743414 1.74255,-1.215937 4.19317,-3.759042 5.0881,-5.280113 0.69325,-1.178304 0.80774,-1.528195 0.88281,-2.697805 0.10024,-1.562077 -0.27811,-2.657032 -1.28818,-3.7279 -0.91652,-0.971678 -1.87757,-1.262102 -3.8052,-1.149928 -4.10866,0.239102 -11.11482,3.796227 -18.53237,9.409153 -1.26495,0.957195 -2.62749,1.973916 -3.02786,2.259383 l -0.72797,0.519021 -0.76462,-0.497879 c -1.31365,-0.85529 -5.7267,-5.429944 -7.16855,-7.430984 -2.11074,-2.929311 -3.53515,-5.397234 -4.05392,-7.023821 -0.12285,-0.385146 -0.33132,-0.950009 -0.4633,-1.255255 -0.92962,-2.150259 -2.08615,-8.176339 -2.0948,-10.914959 l -0.004,-1.479994 2.14587,-1.757493 c 5.7237,-4.687782 11.75761,-8.857726 16.60968,-11.478705 5.65025,-3.052127 9.79055,-4.928725 14.05994,-6.372685 0.814,-0.275305 1.6465,-0.572816 1.85,-0.661138 1.2123,-0.526157 7.55273,-1.975063 10.26746,-2.34631 4.84472,-0.662524 12.10683,-0.341277 15.30602,0.677076 0.58652,0.186698 1.34258,0.399587 1.68012,0.473084 0.33753,0.07349 0.83703,0.250147 1.10999,0.392555 0.27296,0.142407 0.5569,0.259436 0.63099,0.260062 0.50237,0.0043 3.75561,1.788411 5.62917,3.087181 4.52596,3.137425 9.05272,9.631787 10.47315,15.025356 0.52513,1.994044 0.56627,2.381841 0.58084,5.476005 0.0121,2.571701 -0.0612,3.688065 -0.3218,4.90248 -1.42287,6.63004 -4.35468,11.874468 -10.67817,19.101169 l -0.76892,0.878748 1.63799,0.01415 c 0.90091,0.008 1.8045,0.05692 2.00799,0.109227 0.20351,0.05233 1.11926,0.169263 2.03501,0.259939 0.91574,0.09071 1.99798,0.247869 2.40499,0.349331 0.40699,0.101459 1.28111,0.276975 1.94248,0.390009 1.2438,0.212592 4.76145,1.22744 5.08749,1.467752 0.10168,0.07496 0.50088,0.238141 0.88698,0.362538 1.00747,0.32459 3.66804,1.745116 4.96833,2.652661 4.41182,3.079262 7.18842,6.696997 9.54644,12.438477 1.66288,4.04889 2.2712,9.57729 1.61145,14.64506 -1.93448,14.85967 -13.43765,29.10062 -32.64564,40.41534 -4.69693,2.76677 -11.7322,6.36705 -16.92744,8.66251 -7.98104,3.52635 -18.1688,6.93846 -25.71488,8.61248 -1.22099,0.27087 -2.28704,0.5553 -2.36898,0.63206 -0.082,0.0768 -0.0195,0.69792 0.13873,1.38032 0.35525,1.53173 0.36807,3.95207 0.0277,5.23042 -0.66379,2.49324 -2.49386,4.68618 -4.67111,5.59732 -1.50571,0.63011 -5.24217,0.72161 -7.82948,0.19172 z m 6.86151,-4.34591 c 1.66132,-1.16861 2.188,-3.37889 1.47926,-6.2079 -0.21671,-0.86508 -0.68517,-2.31448 -1.04103,-3.22091 -0.35585,-0.90643 -0.5839,-1.70037 -0.5068,-1.76431 0.0771,-0.0639 1.34733,-0.34604 2.82269,-0.62689 1.47538,-0.28084 4.38051,-0.92363 6.45585,-1.42843 21.41326,-5.20838 39.83286,-14.19693 52.93252,-25.83041 6.06316,-5.38453 10.64546,-11.14333 13.50649,-16.97423 1.59988,-3.26061 2.29042,-5.23916 2.9701,-8.50997 0.47688,-2.29481 0.5383,-2.96543 0.53897,-5.88439 5.6e-4,-2.60935 -0.0791,-3.68651 -0.38361,-5.17998 -1.03661,-5.08541 -3.01145,-8.949114 -6.18268,-12.096219 -4.86229,-4.82531 -11.50388,-7.086777 -20.81284,-7.086777 -4.05532,0 -5.73678,0.198289 -11.56246,1.36358 -1.72973,0.346001 -3.16546,0.611184 -3.19051,0.589284 -0.025,-0.02193 1.63994,-1.322502 3.69998,-2.890272 10.67964,-8.127612 16.91561,-17.15141 17.92174,-25.933737 0.67253,-5.870366 -1.59149,-11.884557 -6.36605,-16.910929 -3.52095,-3.706643 -8.04816,-5.962817 -13.68267,-6.818865 -2.33505,-0.35476 -7.77138,-0.357045 -10.41919,-0.0044 -12.42438,1.654837 -26.80488,8.481349 -39.36965,18.689026 -1.00461,0.816151 -1.95484,1.586335 -2.11162,1.711518 -0.25192,0.201145 -0.2572,0.448505 -0.0455,2.127491 0.64708,5.132426 2.23402,9.585935 4.6982,13.184837 1.63733,2.391299 5.09742,6.382476 5.53319,6.382476 0.0959,0 0.93564,-0.568428 1.8659,-1.26317 7.44463,-5.559821 14.19272,-8.969224 19.2957,-9.748954 2.82505,-0.431671 5.18344,0.007 6.93066,1.288986 1.02613,0.752923 2.6238,3.068804 3.04442,4.413013 1.56978,5.016649 -1.19313,10.114656 -8.16153,15.059275 -1.20519,0.855184 -4.88713,3.105526 -5.31391,3.247787 -0.11069,0.03688 -0.17615,0.80049 -0.16113,1.87996 0.0697,5.013121 2.67239,10.70809 7.10923,15.55548 l 1.01598,1.11 1.17593,-0.42584 c 8.2785,-2.99783 12.73705,-3.99327 17.82587,-3.9799 2.3959,0.006 3.22946,0.0807 4.37404,0.39041 4.84398,1.31074 7.55842,4.81236 7.55842,9.7503 0,5.6267 -4.23772,10.94404 -13.41246,16.82949 -9.12471,5.85337 -24.47259,10.60355 -40.97733,12.68252 -0.86488,0.10898 -1.88028,0.24229 -2.25647,0.29632 l -0.68397,0.0983 0.80312,0.98601 c 1.58488,1.94582 2.07004,4.52137 1.31889,7.00159 -0.44955,1.48439 -0.29867,2.01637 1.0319,3.63813 1.38771,1.69141 1.93857,2.84149 2.18153,4.55452 0.34945,2.46394 -0.23191,4.30876 -1.93626,6.14445 -1.87249,2.01679 -5.16043,3.21968 -7.6175,2.78687 -1.26182,-0.22227 -2.76392,-0.99165 -3.1793,-1.62847 -0.2831,-0.43402 -0.2801,-0.43961 0.12074,-0.22508 2.18923,1.17164 6.30049,0.10566 8.59293,-2.22808 0.88897,-0.90495 1.12214,-1.28794 1.45867,-2.39592 0.93409,-3.07529 -0.251,-6.43761 -2.77879,-7.88395 -0.46638,-0.26685 -0.87715,-0.50647 -0.9128,-0.53248 -0.0356,-0.026 0.1842,-0.36504 0.48856,-0.75333 0.77295,-0.98614 1.02701,-1.92039 0.91602,-3.36843 -0.38104,-4.97135 -5.15087,-7.82202 -10.11125,-6.04296 -0.44909,0.16108 -0.92978,0.38687 -1.06821,0.50175 -0.42201,0.35023 -0.45633,0.0574 -0.0533,-0.45497 0.53189,-0.67619 2.4773,-1.56698 3.74179,-1.71335 0.69429,-0.0803 1.06376,-0.20778 1.06376,-0.36683 0,-0.25501 -0.92229,-3.9115 -1.41068,-5.59277 -0.36884,-1.26971 -0.87868,-1.61514 -2.37367,-1.60817 -1.65416,0.008 -2.63817,0.55403 -7.33213,4.07076 -14.62196,10.95489 -22.78292,17.96282 -24.7595,21.26133 -1.23032,2.05315 -0.92562,3.76322 0.94191,5.28645 3.49448,2.8502 9.45103,5.30154 28.82909,11.86425 9.72647,3.29402 10.48171,3.48949 13.25843,3.43125 1.76158,-0.0368 1.9312,-0.0748 2.67237,-0.59614 z M 237.1413,151.56592 c -0.91518,-0.27647 -1.62077,-0.80973 -1.7301,-1.30754 -0.0593,-0.27012 -0.0277,-0.98243 0.0705,-1.58289 0.2114,-1.29433 1.08152,-4.35098 1.30107,-4.57053 0.23364,-0.23362 2.05815,-0.43289 2.81168,-0.30708 1.92793,0.32189 3.31099,2.0083 3.31099,4.03719 0,2.63458 -2.98896,4.56922 -5.76408,3.73085 z m -0.62307,-10.21038 c -0.19044,-0.88045 -0.92287,-2.27755 -1.92361,-3.66925 -0.47558,-0.66136 -0.97942,-1.48423 -1.11965,-1.82855 -0.23251,-0.57086 -0.22356,-0.65011 0.10146,-0.89894 1.36924,-1.04816 3.65344,-1.30273 4.96386,-0.5532 0.39733,0.22726 0.97876,0.7315 1.29209,1.12054 0.49491,0.6145 0.57842,0.88153 0.63633,2.03498 0.0627,1.25097 0.0309,1.38079 -0.5521,2.24727 -0.61788,0.91834 -1.84614,1.82434 -2.77437,2.04649 -0.44061,0.10544 -0.50425,0.0545 -0.62405,-0.49934 z"
       id="path1166" />
    <path
       style="fill:none;stroke:#ffffff;stroke-width:3.177;stroke-linecap:round;stroke-linejoin:round;stroke-miterlimit:4;stroke-dasharray:none;stroke-opacity:1"
       d="m 179.43892,97.374753 c 0,-0.72645 0.89591,-2.287755 2.41552,-4.209505 1.81605,-2.296656 4.14545,-3.952463 6.38245,-4.536834 0.98093,-0.256245 7.18748,-1.154725 9.8781,-1.429977 0.65877,-0.06739 1.19393,-0.173123 1.18925,-0.234951 -0.0258,-0.341432 -1.96809,-1.609961 -3.98401,-2.602065 -7.32121,-3.603022 -20.85756,-6.274809 -28.29939,-5.585701 -11.3086,1.047171 -21.36224,5.679915 -30.95927,14.266112 -1.13313,1.013775 -1.17821,1.035477 -1.516,0.729778 -0.56169,-0.508312 -0.6154,-1.343886 -0.17332,-2.696066 0.7677,-2.348175 2.3189,-4.949831 4.13393,-6.933368 0.86903,-0.949705 4.33537,-3.872284 5.9821,-5.043702 10.03067,-7.135377 23.4193,-11.181536 33.97469,-10.267449 7.2077,0.624188 10.76263,1.78067 22.07674,7.18196 3.12869,0.902346 4.80308,2.032126 4.09431,0.165391 -0.92649,-2.429954 -1.06452,-3.598555 -0.55982,-4.739512 0.46078,-1.041679 1.89558,-2.716432 3.38682,-3.953219 1.06499,-0.88327 1.15414,-0.923496 1.36849,-0.617461 0.12612,0.180044 1.85671,3.152849 3.84576,6.606227 1.98907,3.453378 4.7346,8.155353 6.1012,10.448829 1.36659,2.293468 2.58577,4.477579 2.70929,4.85357 0.44593,1.357439 -0.27889,3.23524 -2.02875,5.25586 -0.91596,1.057688 -3.3087,3.095871 -4.17422,3.555681 -0.58928,0.313056 -1.98616,0.273051 -5.41207,-0.155003 -8.11264,-1.013632 -15.78069,-1.26533 -22.09189,-0.725162 -1.71233,0.146559 -6.0573,0.78864 -7.85194,1.160332 -0.45539,0.09431 -0.48797,0.06137 -0.48797,-0.493765 z"
       id="path2101"
       sodipodi:nodetypes="sssscsssssscsccssssssssssss" />
    <path
       style="fill:#000000;stroke-width:0.264583"
       id="path2063"
       d="" />
  </g>
</svg>
