<?xml version="1.0" encoding="UTF-8" standalone="no"?>
<!-- Created with Inkscape (http://www.inkscape.org/) -->

<svg
   width="50"
   height="50"
   viewBox="0 0 13.229166 13.229167"
   version="1.1"
   id="svg827"
   inkscape:version="1.1 (c68e22c387, 2021-05-23)"
   sodipodi:docname="watch.svg"
   xmlns:inkscape="http://www.inkscape.org/namespaces/inkscape"
   xmlns:sodipodi="http://sodipodi.sourceforge.net/DTD/sodipodi-0.dtd"
   xmlns="http://www.w3.org/2000/svg"
   xmlns:svg="http://www.w3.org/2000/svg">
  <sodipodi:namedview
     id="namedview829"
     pagecolor="#ffffff"
     bordercolor="#cccccc"
     borderopacity="1"
     inkscape:pageshadow="0"
     inkscape:pageopacity="0"
     inkscape:pagecheckerboard="true"
     inkscape:document-units="mm"
     showgrid="false"
     units="px"
     inkscape:zoom="15.319853"
     inkscape:cx="21.181665"
     inkscape:cy="25.4898"
     inkscape:window-width="1920"
     inkscape:window-height="1111"
     inkscape:window-x="-9"
     inkscape:window-y="-9"
     inkscape:window-maximized="1"
     inkscape:current-layer="layer1" />
  <defs
     id="defs824" />
  <g
     inkscape:label="Layer 1"
     inkscape:groupmode="layer"
     id="layer1">
    <path
       id="path1474"
       style="fill:#ffffff;fill-rule:evenodd;stroke-width:8.07092;stroke-linecap:round;stroke-linejoin:round"
       d="M 24.511719,0.00390625 A 25.000001,25.000001 0 0 0 0.00195313,25.324219 25.000001,25.000001 0 0 0 25.162109,50 25.000001,25.000001 0 0 0 50,25 l -0.0078,-0.650391 A 25.000001,25.000001 0 0 0 24.511719,0.00390625 Z M 13.9375,9.4921875 C 15.494073,9.504143 40.722656,24.084664 40.722656,25 c 0,0.929865 -26.036509,15.962978 -26.841797,15.498047 -0.805285,-0.464935 -0.805285,-30.5311613 0,-30.9960939 0.01258,-0.00726 0.03193,-0.00996 0.05664,-0.00977 z"
       transform="scale(0.26458333)" />
  </g>
</svg>
